<?xml version="1.0" standalone="no"?>
<!DOCTYPE svg PUBLIC "-//W3C//DTD SVG 20010904//EN"
 "http://www.w3.org/TR/2001/REC-SVG-20010904/DTD/svg10.dtd">
<svg version="1.0" xmlns="http://www.w3.org/2000/svg"
 width="106.000000pt" height="106.000000pt" viewBox="0 0 106.000000 106.000000"
 preserveAspectRatio="xMidYMid meet">
<metadata>
Created by potrace 1.14, written by Peter Selinger 2001-2017
</metadata>
<g transform="translate(0.000000,106.000000) scale(0.100000,-0.100000)"
fill="#000000" stroke="none">
<path d="M507 837 c-16 -61 -30 -119 -32 -127 -2 -8 -26 -106 -54 -217 -28
-111 -51 -205 -51 -208 0 -3 81 -5 180 -5 169 0 180 1 171 18 -5 9 -11 31 -14
47 -6 34 -136 552 -144 575 -4 8 -5 18 -5 23 1 4 -4 7 -10 7 -8 0 -24 -45 -41
-113z"/>
<path d="M389 255 c-9 -10 -40 -15 -96 -16 -46 -1 -83 -6 -83 -11 0 -5 5 -6
11 -2 8 4 9 -1 4 -16 -6 -19 -4 -21 15 -15 15 5 20 3 16 -3 -3 -6 -2 -13 4
-17 6 -4 10 6 10 25 0 17 4 29 10 25 5 -3 7 -12 3 -20 -3 -8 0 -15 5 -15 6 0
9 9 7 20 -3 14 2 20 16 20 10 0 19 -5 19 -11 0 -5 -4 -7 -10 -4 -15 9 -12 -9
5 -31 11 -14 15 -15 14 -4 -4 41 1 50 29 49 26 0 26 -1 4 -9 -19 -8 -21 -13
-12 -30 6 -11 13 -20 16 -20 2 0 0 9 -6 20 -9 17 -8 20 9 20 15 0 18 -5 13
-22 -3 -14 -1 -19 6 -14 6 3 9 18 6 31 -2 14 0 25 5 25 5 0 12 -15 14 -32 l4
-33 1 33 c1 22 7 32 18 32 10 0 13 -6 9 -19 -3 -11 0 -21 8 -24 10 -4 13 1 9
19 -2 14 0 24 8 24 6 0 9 -8 6 -17 -3 -10 -1 -25 4 -33 7 -11 10 -5 10 23 0
35 -2 37 -32 37 -17 0 -39 7 -48 15 -14 13 -18 13 -31 0z m28 -11 c-3 -3 -12
-4 -19 -1 -8 3 -5 6 6 6 11 1 17 -2 13 -5z m-157 -24 c0 -5 -4 -10 -10 -10 -5
0 -10 5 -10 10 0 6 5 10 10 10 6 0 10 -4 10 -10z"/>
<path d="M621 253 c-6 -12 -20 -17 -40 -15 -29 2 -30 1 -21 -24 6 -14 7 -31 3
-37 -4 -8 -1 -7 9 1 13 10 17 10 21 0 3 -7 6 -1 6 14 1 15 6 30 13 34 7 5 9 1
6 -13 -3 -12 -2 -27 3 -34 6 -10 9 -4 9 19 0 24 4 32 18 32 12 0 13 -3 5 -8
-13 -9 -6 -52 9 -52 5 0 5 8 -1 18 -7 13 -6 23 2 31 9 9 7 13 -11 17 -20 6
-32 24 -14 24 19 -1 34 -20 39 -51 7 -45 13 -50 13 -11 0 18 5 32 10 32 6 0
10 -8 10 -17 0 -10 11 -23 24 -29 21 -10 23 -9 18 9 -4 14 -1 18 9 15 8 -3 12
-14 11 -24 -2 -10 -1 -16 3 -13 3 4 8 21 10 38 l4 31 -52 0 c-30 1 -60 7 -71
15 -25 19 -33 19 -45 -2z m-31 -38 c0 -8 -4 -15 -10 -15 -5 0 -10 7 -10 15 0
8 5 15 10 15 6 0 10 -7 10 -15z m170 6 c-8 -6 -18 -7 -22 -5 -4 3 -8 0 -8 -7
0 -7 -3 -10 -6 -6 -11 11 7 27 29 27 17 0 19 -2 7 -9z"/>
<path d="M802 203 c1 -37 1 -37 5 -5 4 27 8 32 32 32 24 0 28 -3 24 -24 -3
-13 -1 -26 4 -29 4 -3 8 10 9 29 1 33 0 34 -38 34 -38 0 -38 0 -36 -37z"/>
<path d="M830 210 c0 -5 5 -10 10 -10 6 0 10 5 10 10 0 6 -4 10 -10 10 -5 0
-10 -4 -10 -10z"/>
<path d="M114 108 c9 -16 12 -16 14 -3 2 8 7 13 12 10 5 -3 7 -13 4 -23 -5
-13 -4 -14 4 -3 7 9 12 10 16 2 4 -6 12 -11 19 -11 6 0 3 6 -8 13 -12 9 -14
16 -7 21 6 3 17 -3 25 -15 11 -15 16 -17 20 -7 4 10 8 10 16 -2 10 -13 13 -12
26 4 10 13 15 15 15 6 0 -7 3 -11 6 -7 3 3 1 13 -4 23 -9 16 -10 15 -16 -4 -7
-20 -9 -21 -24 -6 -11 12 -17 13 -20 5 -3 -9 -9 -7 -22 4 -12 11 -20 13 -25 5
-3 -5 -12 -7 -18 -3 -6 4 -19 8 -28 8 -14 1 -15 -2 -5 -17z"/>
<path d="M398 103 c5 -21 7 -23 10 -9 2 10 0 22 -6 28 -6 6 -7 0 -4 -19z"/>
<path d="M499 120 c-9 -5 -26 -8 -37 -5 -19 3 -20 1 -10 -15 8 -12 15 -15 19
-8 4 7 8 6 12 -3 3 -9 6 -7 6 5 1 18 2 18 14 3 12 -17 32 -18 55 -4 7 5 12 3
12 -4 0 -7 2 -10 5 -7 8 7 -5 38 -16 38 -5 0 -9 -6 -9 -13 0 -7 -9 -13 -21
-14 -16 -2 -20 3 -16 18 3 10 4 19 4 19 -1 0 -9 -5 -18 -10z"/>
<path d="M587 113 c3 -7 6 -13 8 -13 2 0 5 6 8 13 3 8 -1 14 -8 14 -7 0 -11
-6 -8 -14z"/>
<path d="M645 120 c-4 -6 -11 -8 -16 -4 -13 7 -7 -19 6 -28 6 -4 15 -8 20 -8
6 0 4 4 -4 9 -7 5 -10 14 -7 20 4 6 12 8 18 5 7 -4 8 -2 4 4 -9 15 -13 15 -21
2z"/>
<path d="M747 123 c-4 -3 -7 -13 -7 -21 0 -18 13 -7 16 13 2 17 1 18 -9 8z"/>
<path d="M780 118 c-12 -8 -12 -9 2 -4 22 7 35 -13 17 -25 -10 -6 -8 -8 8 -6
12 0 21 4 21 7 -1 17 3 30 12 30 5 0 7 -6 4 -14 -3 -8 -1 -16 4 -20 5 -3 8 5
7 16 -2 24 -20 35 -30 18 -5 -7 -11 -8 -19 -1 -8 7 -17 6 -26 -1z"/>
<path d="M881 114 c-1 -12 6 -25 15 -28 13 -5 14 -3 7 6 -6 7 -13 20 -16 28
-4 10 -6 8 -6 -6z"/>
<path d="M943 114 c-9 -23 13 -40 32 -24 8 7 15 18 15 24 0 6 -5 3 -11 -6 -12
-22 -29 -23 -29 -2 0 8 5 12 10 9 6 -3 10 -1 10 4 0 17 -20 13 -27 -5z"/>
<path d="M30 104 c0 -8 4 -13 9 -10 5 4 12 0 15 -6 4 -10 9 -9 18 4 11 15 13
15 26 0 11 -15 11 -14 1 7 -11 24 -12 24 -25 6 -8 -10 -14 -14 -14 -8 0 6 -7
13 -15 17 -9 3 -15 0 -15 -10z"/>
<path d="M348 113 c-10 -2 -18 -9 -18 -14 0 -6 10 -5 23 2 37 20 36 23 -5 12z"/>
<path d="M423 106 c1 -11 9 -21 17 -23 10 -3 11 -2 4 4 -6 4 -14 15 -17 23 -5
11 -6 9 -4 -4z"/>
<path d="M676 105 c-3 -8 -1 -15 4 -15 13 0 22 18 11 24 -5 3 -11 -1 -15 -9z"/>
<path d="M707 105 c-4 -8 -2 -17 3 -20 6 -4 10 3 10 14 0 25 -6 27 -13 6z"/>
<path d="M912 101 c7 -9 13 -18 15 -20 1 -2 1 5 0 16 0 11 -7 20 -14 20 -10 0
-10 -4 -1 -16z"/>
<path d="M1003 100 c-10 -15 -9 -17 8 -13 20 5 25 18 11 27 -4 2 -13 -4 -19
-14z"/>
<path d="M290 90 c0 -5 5 -10 11 -10 5 0 7 5 4 10 -3 6 -8 10 -11 10 -2 0 -4
-4 -4 -10z"/>
</g>
</svg>
